<svg width="64" height="49" viewBox="0 0 64 49" fill="currentColor" xmlns="http://www.w3.org/2000/svg">
<path fill-rule="evenodd" clip-rule="evenodd" d="M0.439941 6.72859V4.69702C0.439941 2.48788 2.2308 0.697021 4.43994 0.697021H11.3518C11.8415 0.697021 12.3271 0.786955 12.7843 0.962348L16.6314 2.43801C17.0886 2.6134 17.5742 2.70334 18.0639 2.70334H59.9999C62.2091 2.70334 63.9999 4.50682 63.9999 6.71596C63.9999 8.9251 62.2091 10.7286 59.9999 10.7286H4.43994C2.2308 10.7286 0.439941 8.93773 0.439941 6.72859ZM0.440001 16.7349C0.440001 14.5257 2.23086 12.7349 4.44 12.7349H60C62.2091 12.7349 64 14.5257 64 16.7349V44.8485C64 47.0577 62.2091 48.8485 60 48.8485H4.44C2.23086 48.8485 0.440001 47.0577 0.440001 44.8485V16.7349ZM32.5 20.0001C34.433 20.0001 36 21.5671 36 23.5001V28.0001H40.5C42.433 28.0001 44 29.5671 44 31.5001C44 33.4331 42.433 35.0001 40.5 35.0001H36V39.5001C36 41.4331 34.433 43.0001 32.5 43.0001C30.567 43.0001 29 41.4331 29 39.5001V35.0001H24.5C22.567 35.0001 21 33.4331 21 31.5001C21 29.5671 22.567 28.0001 24.5 28.0001H29V23.5001C29 21.5671 30.567 20.0001 32.5 20.0001Z"/>
</svg>
