<svg width="50" height="52" viewBox="0 0 50 52" fill="currentColor" xmlns="http://www.w3.org/2000/svg">
<path d="M20.2994 16.0817V3.625C20.2994 1.692 21.8665 0.125 23.7995 0.125H24.3004C26.2334 0.125 27.8004 1.692 27.8004 3.625V16.0817C27.8004 17.1863 28.6958 18.0817 29.8004 18.0817H32.9849C36.0621 18.0817 37.6416 21.7672 35.5194 23.9955L26.5844 33.3773C25.2051 34.8255 22.8947 34.8255 21.5154 33.3773L12.5804 23.9955C10.4582 21.7672 12.0377 18.0817 15.1149 18.0817H18.2994C19.404 18.0817 20.2994 17.1863 20.2994 16.0817Z"/>
<path d="M0.297607 48.5V31.5577C0.297607 29.6247 1.86461 28.0577 3.79761 28.0577H6.29853C8.23153 28.0577 9.79853 29.6247 9.79853 31.5577V38.524C9.79853 40.457 11.3655 42.024 13.2985 42.024H36.7015C38.6345 42.024 40.2015 40.457 40.2015 38.524V31.5577C40.2015 29.6247 41.7685 28.0577 43.7015 28.0577H46.2024C48.1354 28.0577 49.7024 29.6247 49.7024 31.5577V48.5C49.7024 50.433 48.1354 52 46.2024 52H3.79761C1.86461 52 0.297607 50.433 0.297607 48.5Z" />
</svg>
