<svg width="64" height="44" viewBox="0 0 64 44" fill="currentColor" xmlns="http://www.w3.org/2000/svg">
<path fill-rule="evenodd" clip-rule="evenodd" d="M0 5.5C0 2.46243 2.46243 0 5.5 0H58.5C61.5376 0 64 2.46243 64 5.5C64 8.53757 61.5376 11 58.5 11H5.5C2.46243 11 0 8.53757 0 5.5ZM8 21.7192C8 18.6817 10.4624 16.2192 13.5 16.2192H50.5C53.5376 16.2192 56 18.6817 56 21.7192C56 24.7568 53.5376 27.2192 50.5 27.2192H13.5C10.4624 27.2192 8 24.7568 8 21.7192ZM21.4999 32.4385C18.4623 32.4385 15.9999 34.9009 15.9999 37.9385C15.9999 40.976 18.4623 43.4385 21.4999 43.4385H42.4999C45.5374 43.4385 47.9999 40.976 47.9999 37.9385C47.9999 34.9009 45.5374 32.4385 42.4999 32.4385H21.4999Z" />
</svg>
