<svg width="62" height="46" viewBox="0 0 62 46" fill="currentColor" xmlns="http://www.w3.org/2000/svg">
<path fill-rule="evenodd" clip-rule="evenodd" d="M0 4V5.53127C0 7.74041 1.79086 9.53127 4 9.53127H58.1876C60.2932 9.53127 62.0001 7.82435 62.0001 5.71876C62.0001 3.61317 60.2932 1.90625 58.1876 1.90625H17.1916C16.7136 1.90625 16.2394 1.82057 15.7917 1.65327L12.0438 0.252988C11.596 0.0856841 11.1219 0 10.6438 0H4C1.79086 0 0 1.79086 0 4ZM4 11.4375C1.79086 11.4375 0 13.2284 0 15.4375V41.7501C0 43.9592 1.79086 45.7501 4 45.7501H58.0001C60.2092 45.7501 62.0001 43.9592 62.0001 41.7501V15.4375C62.0001 13.2284 60.2092 11.4375 58.0001 11.4375H4Z" />
</svg>
