<svg width="60" height="15" viewBox="0 0 60 15" fill="currentColor" xmlns="http://www.w3.org/2000/svg">
<path fill-rule="evenodd" clip-rule="evenodd" d="M14.7636 9.375C13.931 12.6098 10.9946 15 7.49988 15C3.35774 15 -0.00012207 11.6421 -0.00012207 7.5C-0.00012207 3.35786 3.35774 0 7.49988 0C10.9039 0 13.7783 2.2678 14.6946 5.375H22.8059C23.7222 2.2678 26.5966 0 30.0006 0C34.1427 0 37.5006 3.35786 37.5006 7.5C37.5006 11.6421 34.1427 15 30.0006 15C26.5059 15 23.5695 12.6098 22.7369 9.375H14.7636ZM33.5006 7.5C33.5006 9.433 31.9336 11 30.0006 11C28.0676 11 26.5006 9.433 26.5006 7.5C26.5006 5.567 28.0676 4 30.0006 4C31.9336 4 33.5006 5.567 33.5006 7.5ZM52.5006 11C54.4336 11 56.0006 9.433 56.0006 7.5C56.0006 5.567 54.4336 4 52.5006 4C50.5676 4 49.0006 5.567 49.0006 7.5C49.0006 9.433 50.5676 11 52.5006 11ZM52.5006 15C56.6427 15 60.0006 11.6421 60.0006 7.5C60.0006 3.35786 56.6427 0 52.5006 0C48.3585 0 45.0006 3.35786 45.0006 7.5C45.0006 11.6421 48.3585 15 52.5006 15Z" />
</svg>
