<svg width="62" height="58" viewBox="0 0 62 58" fill="currentColor" xmlns="http://www.w3.org/2000/svg">
<path fill-rule="evenodd" clip-rule="evenodd" d="M54.6921 32.7672L57.0882 35.6108C57.9779 36.6667 59.555 36.8014 60.6109 35.9118C61.6668 35.0221 61.8015 33.4449 60.9118 32.3891L34.6857 1.26357C33.3207 -0.356441 30.8408 -0.401979 29.4172 1.16684L1.14862 32.32C0.220793 33.3425 0.297543 34.9235 1.32004 35.8514C2.34254 36.7792 3.92359 36.7024 4.85142 35.6799L7.30751 32.9732V57C7.30751 57.5523 7.75523 58 8.30751 58H24.5383V35.1512C24.5383 34.8751 24.7621 34.6512 25.0383 34.6512H36.9614C37.2375 34.6512 37.4614 34.8751 37.4614 35.1512V57.5C37.4614 57.7739 37.2412 57.9963 36.9682 58H53.6921C54.2444 58 54.6921 57.5523 54.6921 57V32.7672Z" />
</svg>
