<svg width="62" height="51" viewBox="0 0 62 51" fill="currentColor" xmlns="http://www.w3.org/2000/svg">
<path fill-rule="evenodd" clip-rule="evenodd" d="M25 14.5C21.134 14.5 18 11.366 18 7.5C18 3.63401 21.134 0.5 25 0.5C28.866 0.5 32 3.63401 32 7.5C32 11.366 28.866 14.5 25 14.5ZM1.04919 48.7609L10.7901 28.5776C12.0912 25.8817 15.7839 25.5177 17.5862 27.9078L21.0393 32.4868C22.6084 34.5676 25.7164 34.6162 27.3498 32.5855L41.1093 15.4797C42.9606 13.1781 46.5822 13.608 47.8432 16.279L61.3052 44.7922C62.5579 47.4456 60.6223 50.5 57.6881 50.5H2.03111C1.1385 50.5 0.588111 49.5252 1.04919 48.7609Z" />
</svg>
