<svg width="41" height="63" viewBox="0 0 41 63" fill="currentColor" xmlns="http://www.w3.org/2000/svg">
<path fill-rule="evenodd" clip-rule="evenodd" d="M2.05903 8.78174C0.871168 7.89246 0.102417 6.47398 0.102417 4.87595C0.102417 2.18304 2.28545 0 4.97836 0H36.0213C38.7143 0 40.8973 2.18304 40.8973 4.87595C40.8973 6.50561 40.0978 7.94854 38.8697 8.83392C39.0092 10.5072 38.6193 12.2612 37.5713 13.8576L28.1803 28.1626H28.7143C29.2666 28.1626 29.7143 28.6103 29.7143 29.1626V32.0769C29.7143 32.6292 29.2666 33.0769 28.7143 33.0769H28.4703L37.8241 47.7848C39.09 49.7754 39.3484 51.9951 38.846 53.9948C40.0875 54.8786 40.8973 56.3296 40.8973 57.9697C40.8973 60.6626 38.7143 62.8456 36.0213 62.8456H4.97837C2.28545 62.8456 0.102417 60.6626 0.102417 57.9697C0.102417 56.3395 0.902403 54.8962 2.13121 54.0109C1.62468 52.0121 1.87856 49.7917 3.14014 47.7989L12.4599 33.0769H12.2858C11.7335 33.0769 11.2858 32.6292 11.2858 32.0769V29.1626C11.2858 28.6103 11.7335 28.1626 12.2858 28.1626H12.6266L3.3277 13.8192C2.28791 12.2154 1.90833 10.4565 2.05903 8.78174ZM16.9351 33.0769C16.735 33.6616 16.4651 34.2285 16.1253 34.7652L6.51984 49.9384C5.87865 50.9512 5.75806 52.0817 6.02821 53.0938H34.9449C35.2158 52.0791 35.0939 50.9457 34.4488 49.9314L24.7519 34.6839C24.4265 34.1722 24.1647 33.633 23.9665 33.0769H16.9351ZM23.8187 28.1626H17.0214C16.8071 27.4562 16.4928 26.7729 16.0786 26.1342L6.68407 11.6432C6.29279 11.0397 6.08849 10.3923 6.04347 9.7519H34.8807C34.8353 10.3994 34.6271 11.0538 34.2275 11.6625L24.8148 26.0005C24.3695 26.6787 24.0374 27.4081 23.8187 28.1626Z" />
</svg>
