<svg width="50" height="63" viewBox="0 0 50 63" fill="currentColor" xmlns="http://www.w3.org/2000/svg">
<path fill-rule="evenodd" clip-rule="evenodd" d="M22.6981 8.32654C21.0412 8.32654 19.6981 6.98339 19.6981 5.32654V3.50004C19.6981 1.84318 21.0412 0.500039 22.6981 0.500039H27.3041C28.961 0.500039 30.3041 1.84319 30.3041 3.50004V5.32654C30.3041 6.98339 28.961 8.32654 27.3041 8.32654H22.6981ZM0 13.0409C0 14.6977 1.34315 16.0409 3 16.0409H47C48.6569 16.0409 50 14.6977 50 13.0409V12.7797C50 11.1228 48.6569 9.77968 47 9.77968H3C1.34315 9.77968 0 11.1228 0 12.7797V13.0409ZM16.0609 25.6064C14.9563 25.6064 14.0609 26.5019 14.0609 27.6064V53.0001C14.0609 54.1047 14.9563 55.0001 16.0609 55.0001H33.9397C35.0443 55.0001 35.9397 54.1047 35.9397 53.0001V27.6064C35.9397 26.5019 35.0443 25.6064 33.9397 25.6064H16.0609ZM11.0609 17.6064C8.29947 17.6064 6.06089 19.845 6.06089 22.6064V58.0001C6.06089 60.7615 8.29947 63.0001 11.0609 63.0001H38.9397C41.7011 63.0001 43.9397 60.7615 43.9397 58.0001V22.6064C43.9397 19.845 41.7011 17.6064 38.9397 17.6064H11.0609Z" />
</svg>
